<svg width="253" height="253" viewBox="0 0 253 253" fill="none" xmlns="http://www.w3.org/2000/svg">
<rect width="253" height="253" rx="126.5" fill="#1E1E1E"/>
<path d="M33.4296 98.2042C32.8473 98.1953 32.3005 98.3003 31.7891 98.5191C31.2566 98.7346 30.7752 99.034 30.3449 99.4175C29.9146 99.801 29.5581 100.261 29.2755 100.799C28.9754 101.312 28.7753 101.873 28.6753 102.484C28.4925 103.6 28.5584 104.583 28.8729 105.435C29.1664 106.283 29.6419 107.009 30.2995 107.614C30.936 108.215 31.6984 108.708 32.5868 109.091C33.4786 109.453 34.4193 109.715 35.4088 109.878C36.3562 110.033 37.2997 110.079 38.2395 110.017C39.1616 109.93 40.0202 109.703 40.8153 109.336C41.6105 108.969 42.2928 108.433 42.8625 107.726C43.4112 107.016 43.7769 106.103 43.9596 104.987C44.2079 103.472 43.9378 102.217 43.1494 101.223C42.3645 100.208 41.2296 99.4817 39.7449 99.044L40.531 94.2439C41.9209 94.6013 43.1411 95.1362 44.1918 95.8487C45.2424 96.5612 46.0971 97.4146 46.7557 98.4088C47.4143 99.403 47.8594 100.514 48.0908 101.74C48.3222 102.967 48.3241 104.275 48.0965 105.665C47.8138 107.391 47.2639 108.901 46.4468 110.194C45.6121 111.462 44.5909 112.484 43.3831 113.259C42.1753 114.034 40.8247 114.559 39.3314 114.833C37.8171 115.104 36.2388 115.104 34.5967 114.835C32.9125 114.56 31.396 114.052 30.0471 113.312C28.6772 112.569 27.533 111.636 26.6145 110.512C25.696 109.389 25.0435 108.093 24.6571 106.625C24.2742 105.135 24.2241 103.528 24.5068 101.801C24.7103 100.559 25.0806 99.42 25.6178 98.3839C26.1584 97.3267 26.8468 96.4234 27.6829 95.674C28.5015 94.9002 29.4625 94.3118 30.5662 93.9089C31.6698 93.5059 32.8863 93.3377 34.2157 93.4041L33.4296 98.2042Z" fill="white"/>
<path d="M43.7065 79.7882C44.545 80.2556 45.4168 80.6196 46.3219 80.8799C47.2188 81.1113 48.1034 81.1892 48.9759 81.1139C49.8483 81.0385 50.6724 80.7652 51.4481 80.2939C52.2051 79.8122 52.8589 79.0776 53.4095 78.0901C53.96 77.1025 54.2412 76.1601 54.2529 75.2629C54.2459 74.3554 54.0452 73.5107 53.6506 72.7289C53.256 71.9472 52.7193 71.245 52.0406 70.6223C51.3536 69.9707 50.5909 69.4111 49.7524 68.9436C48.8767 68.4554 47.9717 68.0852 47.0376 67.8331C46.1138 67.5624 45.2157 67.4647 44.3433 67.54C43.4522 67.605 42.6281 67.8783 41.8711 68.36C41.0954 68.8313 40.4323 69.5607 39.8817 70.5483C39.3312 71.5358 39.0594 72.4834 39.0663 73.391C39.0546 74.2882 39.2554 75.1328 39.6686 75.925C40.0632 76.7067 40.6133 77.4286 41.3189 78.0907C42.0349 78.7341 42.8307 79.2999 43.7065 79.7882ZM41.2601 84.1763C39.7694 83.3452 38.5152 82.3529 37.4975 81.1993C36.4611 80.0353 35.7015 78.7692 35.2187 77.4009C34.7359 76.0326 34.5619 74.5923 34.6967 73.0799C34.842 71.5488 35.3405 70.0193 36.1924 68.4914C37.0546 66.9448 38.0935 65.7166 39.3091 64.8067C40.5247 63.8968 41.8414 63.2875 43.2591 62.9788C44.6769 62.6701 46.1533 62.6506 47.6883 62.9201C49.2047 63.1793 50.7082 63.7245 52.1988 64.5555C53.6522 65.3658 54.8878 66.3477 55.9055 67.5013C56.9046 68.6445 57.6363 69.8951 58.1005 71.253C58.5647 72.6109 58.7293 74.0461 58.5945 75.5585C58.441 77.0605 57.9331 78.5848 57.0709 80.1314C56.2191 81.6593 55.1895 82.8927 53.9821 83.8316C52.7665 84.7415 51.4592 85.356 50.06 85.6751C48.6609 85.9942 47.2125 86.0293 45.7147 85.7805C44.1984 85.5213 42.7135 84.9866 41.2601 84.1763Z" fill="white"/>
<path d="M51.7408 47.4906L55.5071 44.2141L72.7621 49.5196L72.8104 49.4776L62.7499 37.9132L66.2989 34.8257L81.2951 52.0637L77.5047 55.3612L60.2948 50.0588L60.2465 50.1008L70.286 61.6411L66.737 64.7285L51.7408 47.4906Z" fill="white"/>
<path d="M85.9243 28.7634L79.6144 31.4242L77.9732 27.5321L95.2223 20.2584L96.8635 24.1505L90.5536 26.8113L97.79 43.972L93.1608 45.9241L85.9243 28.7634Z" fill="white"/>
<path d="M115.566 30.3816L121.46 29.8265L117.807 21.7495L117.743 21.7555L115.566 30.3816ZM114.73 16.3823L119.859 15.8993L130.508 37.8455L125.315 38.3346L123.117 33.431L114.611 34.2321L113.304 39.4657L108.27 39.9397L114.73 16.3823Z" fill="white"/>
<path d="M154.503 27.2568C154.554 26.6768 154.489 26.1238 154.307 25.5979C154.131 25.0512 153.867 24.5494 153.516 24.0925C153.164 23.6355 152.731 23.2467 152.215 22.926C151.725 22.5895 151.18 22.3493 150.578 22.2054C149.478 21.9425 148.493 21.937 147.621 22.1891C146.754 22.4205 145.995 22.8422 145.344 23.4543C144.698 24.0456 144.152 24.7704 143.705 25.6288C143.279 26.4921 142.95 27.4113 142.717 28.3865C142.493 29.3202 142.379 30.2579 142.373 31.1997C142.393 32.1257 142.557 32.9985 142.865 33.8181C143.174 34.6376 143.66 35.3571 144.323 35.9764C144.992 36.5749 145.876 37.0057 146.976 37.2687C148.469 37.6259 149.741 37.4473 150.789 36.7329C151.858 36.0234 152.664 34.9441 153.208 33.4949L157.939 34.6262C157.482 35.9865 156.86 37.1649 156.074 38.1613C155.287 39.1576 154.374 39.9483 153.335 40.5333C152.295 41.1183 151.156 41.4818 149.915 41.6239C148.675 41.7659 147.37 41.6732 146.001 41.3457C144.299 40.9388 142.833 40.2812 141.603 39.3727C140.398 38.4485 139.453 37.356 138.767 36.0953C138.082 34.8346 137.656 33.4497 137.491 31.9405C137.33 30.4105 137.443 28.8363 137.831 27.218C138.227 25.5581 138.844 24.0823 139.679 22.7905C140.519 21.4779 141.533 20.4042 142.72 19.5693C143.906 18.7345 145.246 18.1775 146.738 17.8983C148.252 17.6241 149.859 17.6904 151.56 18.0973C152.785 18.39 153.894 18.8418 154.889 19.4525C155.904 20.0682 156.755 20.8202 157.442 21.7083C158.155 22.5806 158.672 23.5818 158.994 24.7116C159.316 25.8415 159.396 27.067 159.233 28.3882L154.503 27.2568Z" fill="white"/>
<path d="M176.58 33.1815L170.748 29.5925L172.961 25.9951L188.905 35.806L186.691 39.4035L180.859 35.8145L171.098 51.6759L166.819 49.0429L176.58 33.1815Z" fill="white"/>
<path d="M220.369 155.794C220.951 155.803 221.498 155.698 222.009 155.479C222.542 155.263 223.023 154.964 223.454 154.58C223.884 154.197 224.24 153.737 224.523 153.199C224.823 152.686 225.023 152.125 225.123 151.514C225.306 150.398 225.24 149.415 224.925 148.563C224.632 147.715 224.156 146.989 223.499 146.384C222.862 145.783 222.1 145.29 221.212 144.907C220.32 144.545 219.379 144.282 218.39 144.12C217.442 143.965 216.499 143.919 215.559 143.981C214.637 144.068 213.778 144.295 212.983 144.662C212.188 145.029 211.506 145.565 210.936 146.272C210.387 146.982 210.022 147.895 209.839 149.011C209.591 150.526 209.861 151.781 210.649 152.775C211.434 153.79 212.569 154.516 214.054 154.954L213.267 159.754C211.878 159.397 210.657 158.862 209.607 158.149C208.556 157.437 207.701 156.583 207.043 155.589C206.384 154.595 205.939 153.484 205.708 152.258C205.476 151.031 205.474 149.723 205.702 148.333C205.985 146.607 206.535 145.097 207.352 143.804C208.186 142.536 209.208 141.514 210.415 140.739C211.623 139.964 212.974 139.439 214.467 139.165C215.981 138.894 217.56 138.893 219.202 139.162C220.886 139.438 222.402 139.946 223.751 140.686C225.121 141.429 226.265 142.362 227.184 143.485C228.102 144.609 228.755 145.905 229.141 147.373C229.524 148.862 229.574 150.47 229.292 152.197C229.088 153.439 228.718 154.578 228.181 155.614C227.64 156.671 226.952 157.575 226.115 158.324C225.297 159.098 224.336 159.686 223.232 160.089C222.129 160.492 220.912 160.66 219.583 160.594L220.369 155.794Z" fill="white"/>
<path d="M210.092 174.21C209.253 173.742 208.382 173.378 207.476 173.118C206.58 172.887 205.695 172.809 204.823 172.884C203.95 172.959 203.126 173.233 202.35 173.704C201.593 174.186 200.94 174.92 200.389 175.908C199.838 176.895 199.557 177.838 199.546 178.735C199.552 179.643 199.753 180.487 200.148 181.269C200.542 182.051 201.079 182.753 201.758 183.376C202.445 184.027 203.207 184.587 204.046 185.054C204.922 185.543 205.827 185.913 206.761 186.165C207.685 186.436 208.583 186.533 209.455 186.458C210.346 186.393 211.17 186.12 211.927 185.638C212.703 185.167 213.366 184.437 213.917 183.45C214.467 182.462 214.739 181.515 214.732 180.607C214.744 179.71 214.543 178.865 214.13 178.073C213.735 177.291 213.185 176.569 212.48 175.907C211.764 175.264 210.968 174.698 210.092 174.21ZM212.538 169.822C214.029 170.653 215.283 171.645 216.301 172.799C217.337 173.963 218.097 175.229 218.58 176.597C219.063 177.965 219.237 179.406 219.102 180.918C218.956 182.449 218.458 183.979 217.606 185.507C216.744 187.053 215.705 188.281 214.489 189.191C213.274 190.101 211.957 190.71 210.539 191.019C209.122 191.328 207.645 191.347 206.11 191.078C204.594 190.819 203.09 190.273 201.6 189.442C200.146 188.632 198.911 187.65 197.893 186.497C196.894 185.353 196.162 184.103 195.698 182.745C195.234 181.387 195.069 179.952 195.204 178.439C195.357 176.937 195.865 175.413 196.728 173.867C197.579 172.339 198.609 171.105 199.816 170.166C201.032 169.256 202.339 168.642 203.738 168.323C205.137 168.004 206.586 167.969 208.084 168.217C209.6 168.477 211.085 169.011 212.538 169.822Z" fill="white"/>
<path d="M202.058 206.507L198.291 209.784L181.036 204.478L180.988 204.52L191.048 216.085L187.499 219.172L172.503 201.934L176.294 198.637L193.504 203.939L193.552 203.897L183.512 192.357L187.061 189.269L202.058 206.507Z" fill="white"/>
<path d="M167.874 225.235L174.184 222.574L175.825 226.466L158.576 233.74L156.935 229.847L163.245 227.187L156.008 210.026L160.638 208.074L167.874 225.235Z" fill="white"/>
<path d="M138.232 223.616L132.338 224.171L135.992 232.248L136.056 232.242L138.232 223.616ZM139.069 237.616L133.939 238.099L123.291 216.152L128.484 215.663L130.681 220.567L139.188 219.766L140.495 214.532L145.528 214.058L139.069 237.616Z" fill="white"/>
<path d="M99.2957 226.741C99.2447 227.321 99.3099 227.874 99.4912 228.4C99.6675 228.947 99.9314 229.449 100.283 229.905C100.634 230.362 101.068 230.751 101.583 231.072C102.073 231.408 102.619 231.649 103.22 231.793C104.32 232.055 105.306 232.061 106.178 231.809C107.045 231.577 107.804 231.156 108.454 230.544C109.1 229.952 109.647 229.228 110.093 228.369C110.519 227.506 110.848 226.587 111.082 225.611C111.305 224.678 111.42 223.74 111.425 222.798C111.406 221.872 111.241 220.999 110.933 220.18C110.624 219.36 110.138 218.641 109.475 218.022C108.807 217.423 107.922 216.992 106.823 216.729C105.329 216.372 104.058 216.551 103.01 217.265C101.941 217.975 101.134 219.054 100.59 220.503L95.8595 219.372C96.3164 218.011 96.9382 216.833 97.7249 215.837C98.5115 214.84 99.4245 214.05 100.464 213.465C101.503 212.88 102.643 212.516 103.883 212.374C105.124 212.232 106.428 212.325 107.798 212.652C109.499 213.059 110.965 213.717 112.196 214.625C113.4 215.549 114.345 216.642 115.031 217.903C115.717 219.163 116.142 220.548 116.308 222.057C116.468 223.587 116.355 225.162 115.968 226.78C115.571 228.44 114.955 229.916 114.119 231.207C113.279 232.52 112.266 233.594 111.079 234.429C109.892 235.263 108.552 235.82 107.06 236.1C105.547 236.374 103.939 236.308 102.238 235.901C101.014 235.608 99.9045 235.156 98.9099 234.545C97.8946 233.93 97.0435 233.178 96.3565 232.29C95.6439 231.417 95.1266 230.416 94.8045 229.286C94.4825 228.156 94.4027 226.931 94.5651 225.61L99.2957 226.741Z" fill="white"/>
<path d="M77.2186 220.816L83.0508 224.405L80.8371 228.003L64.8939 218.192L67.1076 214.594L72.9398 218.183L82.7004 202.322L86.9792 204.955L77.2186 220.816Z" fill="white"/>
<path d="M215.184 65.8963C215.165 67.9125 214.442 87.1829 193.896 87.183L193.897 87.1854C214.442 87.1855 215.165 106.456 215.184 108.472C215.204 106.456 215.927 87.1855 236.472 87.1855L236.472 87.183C215.927 87.1829 215.204 67.9125 215.184 65.8963Z" fill="white"/>
<path d="M39.1845 143.896C39.1651 145.913 38.4419 165.183 17.8965 165.183L17.8965 165.185C38.442 165.186 39.165 184.456 39.1844 186.472C39.2039 184.456 39.9268 165.185 60.4724 165.186L60.4724 165.183C39.9268 165.183 39.2038 145.913 39.1845 143.896Z" fill="white"/>
</svg>
