<svg width="131" height="131" viewBox="0 0 131 131" fill="none" xmlns="http://www.w3.org/2000/svg">
<path fill-rule="evenodd" clip-rule="evenodd" d="M130.243 71.7656C126.865 107.487 95.1724 133.67 59.4512 130.291C23.7124 126.847 -2.47057 95.1547 0.907805 59.4335C4.28618 23.7124 35.9784 -2.47056 71.6996 0.907805C107.438 4.3522 133.621 36.0445 130.243 71.7656ZM60.9201 114.117C73.6242 115.313 86.2606 111.502 96.0564 103.429C105.852 95.3553 112.091 83.7767 113.256 71.2224C113.312 70.6411 112.907 70.1837 112.325 70.1271C111.744 70.0706 111.287 70.4762 111.23 71.0575C110.073 83.1143 104.191 94.1728 94.7865 101.859C85.3821 109.544 73.2738 113.213 61.151 112.074C49.0282 110.935 37.8199 105.022 30.0198 95.719C22.2858 86.3983 18.5025 74.3915 19.6592 62.3347C19.7158 61.7534 19.3102 61.296 18.7289 61.2394C18.1476 61.1829 17.6902 61.5885 17.6337 62.1698C16.4027 74.7418 20.3275 87.2769 28.4672 97.055C36.5891 106.767 48.282 112.904 60.9201 114.117ZM43.9453 68.9894C48.296 69.3804 52.6835 60.1377 53.8273 48.2966C54.9711 36.4556 52.3835 26.5344 48.0329 26.1433C43.6822 25.7522 39.2947 34.995 38.1509 46.836C37.0071 58.677 39.6607 68.5806 43.9453 68.9894ZM93.8991 52.0661C92.7553 63.9071 88.3678 73.1499 84.0171 72.7588C79.6665 72.3677 77.0789 62.4465 78.2227 50.6054C79.3665 38.7644 83.754 29.5217 88.1047 29.9127C92.3893 30.3215 94.9769 40.2427 93.8991 52.0661Z" fill="#FFF731"/>
</svg>
